<?xml version="1.0" encoding="utf-8"?>
<!-- Generator: Adobe Illustrator 16.0.0, SVG Export Plug-In . SVG Version: 6.00 Build 0)  -->
<!DOCTYPE svg PUBLIC "-//W3C//DTD SVG 1.1//EN" "http://www.w3.org/Graphics/SVG/1.1/DTD/svg11.dtd">
<svg version="1.1" id="Layer_1" xmlns="http://www.w3.org/2000/svg" xmlns:xlink="http://www.w3.org/1999/xlink" x="0px" y="0px"
	 width="28px" height="28px" viewBox="0 0 28 28" enable-background="new 0 0 28 28" xml:space="preserve">
<g>
	<path fill="#676767" d="M27,22.121C27,23.159,26.159,24,25.121,24H1.879C0.841,24,0,23.159,0,22.121V5.879C0,4.841,0.841,4,1.879,4
		h23.242C26.159,4,27,4.841,27,5.879V22.121z"/>
	<g>
		<defs>
			<rect id="SVGID_1_" x="2" y="6" width="23" height="16"/>
		</defs>
		<clipPath id="SVGID_2_">
			<use xlink:href="#SVGID_1_"  overflow="visible"/>
		</clipPath>
		<rect x="-4" y="5" clip-path="url(#SVGID_2_)" fill="#FFFFFF" width="11" height="4"/>
		<rect x="8" y="5" clip-path="url(#SVGID_2_)" fill="#FFFFFF" width="10" height="4"/>
		<rect x="19" y="5" clip-path="url(#SVGID_2_)" fill="#FFFFFF" width="10" height="4"/>
		<rect y="10" clip-path="url(#SVGID_2_)" fill="#FFFFFF" width="10" height="3"/>
		<rect x="11" y="10" clip-path="url(#SVGID_2_)" fill="#FFFFFF" width="11" height="3"/>
		<rect x="23" y="10" clip-path="url(#SVGID_2_)" fill="#FFFFFF" width="10" height="3"/>
		<rect x="-6" y="14" clip-path="url(#SVGID_2_)" fill="#FFFFFF" width="11" height="4"/>
		<rect x="6" y="14" clip-path="url(#SVGID_2_)" fill="#FFFFFF" width="10" height="4"/>
		<rect x="17" y="14" clip-path="url(#SVGID_2_)" fill="#FFFFFF" width="10" height="4"/>
		<rect x="-2" y="19" clip-path="url(#SVGID_2_)" fill="#FFFFFF" width="10" height="4"/>
		<rect x="9" y="19" clip-path="url(#SVGID_2_)" fill="#FFFFFF" width="11" height="4"/>
		<rect x="21" y="19" clip-path="url(#SVGID_2_)" fill="#FFFFFF" width="10" height="4"/>
	</g>
</g>
</svg>
