<?xml version="1.0" encoding="utf-8"?>
<!-- Generator: Adobe Illustrator 16.0.0, SVG Export Plug-In . SVG Version: 6.00 Build 0)  -->
<!DOCTYPE svg PUBLIC "-//W3C//DTD SVG 1.1//EN" "http://www.w3.org/Graphics/SVG/1.1/DTD/svg11.dtd">
<svg version="1.1" id="Layer_1" xmlns="http://www.w3.org/2000/svg" xmlns:xlink="http://www.w3.org/1999/xlink" x="0px" y="0px"
	 width="28px" height="28px" viewBox="0 0 28 28" enable-background="new 0 0 28 28" xml:space="preserve">
<g>
	<path fill="#676767" d="M21.429,25.436c-0.23,0.269-0.636,0.299-0.904,0.067l-5.34-4.604c-0.27-0.232-0.3-0.636-0.068-0.903
		l5.442-6.312c0.231-0.27,0.635-0.3,0.902-0.067l5.344,4.604c0.267,0.231,0.297,0.636,0.065,0.904L21.429,25.436z"/>
	
		<rect x="21.212" y="17.588" transform="matrix(0.7577 0.6526 -0.6526 0.7577 18.5238 -9.5873)" fill="#FFFFFF" width="1.923" height="5.129"/>
	<path fill="#676767" d="M7.298,1.405l19.116,16.479c0.229,0.197,0.366,0.362,0.103,0.667l-0.552,0.639L7.222,3.033
		c-0.229-0.198-0.25-0.099-0.514,0.205L2.005,8.693L1.438,8.202C1.208,8.006,1.121,7.758,1.383,7.453l5.225-6.063
		C6.872,1.085,7.068,1.207,7.298,1.405z"/>
	<polygon fill="#676767" points="3.008,9.495 4.042,9.185 3.878,10.205 4.926,9.947 4.753,10.999 5.819,10.757 5.701,11.774 
		6.731,11.465 6.562,12.519 7.654,12.218 7.506,13.333 8.538,13.021 8.383,14.087 9.443,13.801 9.294,14.914 10.339,14.615 
		10.178,15.716 11.263,15.371 11.053,16.471 12.16,16.183 12.038,17.238 13.021,16.926 12.941,18.017 13.993,17.682 13.872,18.709 
		14.386,18.096 3.641,8.761 	"/>
	<polygon fill="#676767" points="14.641,17.723 3.866,8.516 3.621,8.814 14.349,18.076 	"/>
	
		<rect x="3.609" y="8.834" transform="matrix(0.7574 0.6529 -0.6529 0.7574 6.8945 -0.5403)" fill="#676767" width="1.131" height="0.35"/>
	
		<rect x="13.936" y="17.478" transform="matrix(-0.7573 -0.653 0.653 -0.7573 13.5261 40.4327)" fill="#676767" width="0.679" height="0.451"/>
</g>
</svg>
