<?xml version="1.0" encoding="utf-8"?>
<!-- Generator: Adobe Illustrator 16.0.0, SVG Export Plug-In . SVG Version: 6.00 Build 0)  -->
<!DOCTYPE svg PUBLIC "-//W3C//DTD SVG 1.1//EN" "http://www.w3.org/Graphics/SVG/1.1/DTD/svg11.dtd">
<svg version="1.1" id="Layer_1" xmlns="http://www.w3.org/2000/svg" xmlns:xlink="http://www.w3.org/1999/xlink" x="0px" y="0px"
	 width="28px" height="28px" viewBox="0 0 28 28" enable-background="new 0 0 28 28" xml:space="preserve">
<g>
	<path fill="#676767" d="M1.98,5.436c0,0-0.042,2.1,2.703,3.906l1.512-3.096L4.938,6.749L1.98,5.436z"/>
	<polygon fill="#676767" points="4.346,9.109 4.938,6.749 5.553,6.502 	"/>
	<path fill="#676767" d="M7.562,2c0,0-1.936-0.719-4,0.519l2.696,1.287L6.396,4.68l-2.514,5.436c0,0,4.58-0.221,7.468,2.784
		l12.304,13.307c0,0,1.08,1.27,2.48-0.102c1.346-1.317,0.067-2.394,0.067-2.394L12.035,9.704c0,0-2.134-1.949-2.309-4.248
		C9.726,5.457,9.56,2.681,7.562,2z M25.513,25.552c-0.385,0.378-1.002,0.371-1.379-0.014c-0.376-0.385-0.37-1.002,0.014-1.379
		c0.386-0.377,1.003-0.37,1.38,0.014C25.904,24.559,25.897,25.176,25.513,25.552z"/>
	<g>
		
			<rect x="6.668" y="7.127" transform="matrix(0.4241 -0.9056 0.9056 0.4241 -2.9867 11.8182)" fill="#FFFFFF" width="2.26" height="2.261"/>
		
			<rect x="6.669" y="7.617" transform="matrix(0.4244 -0.9055 0.9055 0.4244 -2.9878 11.8144)" fill="#FFFFFF" width="2.261" height="1.281"/>
		<g>
			<polygon fill="#FFFFFF" points="6.576,8.856 8.227,9.355 8.312,9.177 6.659,8.677 			"/>
			<polygon fill="#FFFFFF" points="6.812,8.351 8.464,8.851 8.548,8.671 6.896,8.172 			"/>
			<polygon fill="#FFFFFF" points="7.049,7.845 8.701,8.345 8.785,8.167 7.133,7.667 			"/>
			<polygon fill="#FFFFFF" points="9.021,7.661 7.37,7.161 7.286,7.34 8.938,7.839 			"/>
		</g>
	</g>
</g>
</svg>
