<?xml version="1.0" encoding="utf-8"?>
<!-- Generator: Adobe Illustrator 16.0.0, SVG Export Plug-In . SVG Version: 6.00 Build 0)  -->
<!DOCTYPE svg PUBLIC "-//W3C//DTD SVG 1.1//EN" "http://www.w3.org/Graphics/SVG/1.1/DTD/svg11.dtd">
<svg version="1.1" id="Layer_1" xmlns="http://www.w3.org/2000/svg" xmlns:xlink="http://www.w3.org/1999/xlink" x="0px" y="0px"
	 width="28px" height="28px" viewBox="0 0 28 28" enable-background="new 0 0 28 28" xml:space="preserve">
<g>
	<path fill="#676767" d="M26.979,8.852l-2.43-2.43l-4.797,4.798L17.03,8.496l4.797-4.797l-2.43-2.43l-4.797,4.798l-3.079-3.081
		L9.196,5.311l13.74,13.741l2.326-2.324l-3.08-3.078L26.979,8.852z"/>
	<path fill="#676767" d="M19.56,20.354L7.646,8.441c-2.57,3.082-5.488,7.85-3.472,11.948l-3.549,3.549
		c-0.833,0.837-0.833,2.201,0,3.037l0.399,0.398c0.833,0.835,2.201,0.835,3.035,0l3.55-3.549
		C11.708,25.842,16.475,22.926,19.56,20.354z"/>
</g>
</svg>
