<?xml version="1.0" encoding="utf-8"?>
<!-- Generator: Adobe Illustrator 16.0.0, SVG Export Plug-In . SVG Version: 6.00 Build 0)  -->
<!DOCTYPE svg PUBLIC "-//W3C//DTD SVG 1.1//EN" "http://www.w3.org/Graphics/SVG/1.1/DTD/svg11.dtd">
<svg version="1.1" id="Layer_1" xmlns="http://www.w3.org/2000/svg" xmlns:xlink="http://www.w3.org/1999/xlink" x="0px" y="0px"
	 width="28px" height="28px" viewBox="0 0 28 28" enable-background="new 0 0 28 28" xml:space="preserve">
<g>
	<path fill="#676767" d="M27,25.074C27,26.138,26.138,27,25.074,27H2.926C1.862,27,1,26.138,1,25.074V1.926C1,0.862,1.862,0,2.926,0
		h22.148C26.138,0,27,0.862,27,1.926V25.074z"/>
	<path fill="#FFFFFF" d="M7,23.037C7,23.569,6.569,24,6.037,24H4.963C4.431,24,4,23.569,4,23.037V3.963C4,3.431,4.431,3,4.963,3
		h1.074C6.569,3,7,3.431,7,3.963V23.037z"/>
	<path fill="#FFFFFF" d="M24,23.037C24,23.569,23.569,24,23.037,24h-1.074C21.431,24,21,23.569,21,23.037V3.963
		C21,3.431,21.431,3,21.963,3h1.074C23.569,3,24,3.431,24,3.963V23.037z"/>
	<path fill="#FFFFFF" d="M24,4.815C24,5.347,23.692,6,23.176,6H4.463C3.946,6,4,5.347,4,4.815V3.852C4,3.32,3.946,3,4.463,3h18.712
		C23.692,3,24,3.32,24,3.852V4.815z"/>
	<path fill="#FFFFFF" d="M24,23.111C24,23.644,23.692,24,23.176,24H4.463C3.946,24,4,23.644,4,23.111v-0.963
		C4,21.616,3.946,21,4.463,21h18.712C23.692,21,24,21.616,24,22.148V23.111z"/>
	<path fill="#FFFFFF" d="M11,18.552C11,18.799,10.799,19,10.552,19h-0.104C10.201,19,10,18.799,10,18.552V9.448
		C10,9.201,10.201,9,10.448,9h0.104C10.799,9,11,9.201,11,9.448V18.552z"/>
	<path fill="#FFFFFF" d="M18,18.552C18,18.799,17.799,19,17.552,19h-0.104C17.201,19,17,18.799,17,18.552V9.448
		C17,9.201,17.201,9,17.448,9h0.104C17.799,9,18,9.201,18,9.448V18.552z"/>
	<path fill="#FFFFFF" d="M18,9.323C18,9.571,18.01,10,17.792,10H9.908C9.69,10,10,9.571,10,9.323V8.874C10,8.626,9.69,9,9.908,9
		h7.884C18.01,9,18,8.626,18,8.874V9.323z"/>
	<path fill="#FFFFFF" d="M18,17.848C18,18.096,17.933,18,17.718,18H9.906C9.69,18,10,18.096,10,17.848v-0.448
		C10,17.151,9.69,17,9.906,17h7.812C17.933,17,18,17.151,18,17.399V17.848z"/>
</g>
</svg>
